%TF.GenerationSoftware,KiCad,Pcbnew,8.0.8*%
%TF.CreationDate,2025-01-20T02:54:04+01:00*%
%TF.ProjectId,EFHW unun,45464857-2075-46e7-956e-2e6b69636164,rev?*%
%TF.SameCoordinates,Original*%
%TF.FileFunction,Copper,L1,Top*%
%TF.FilePolarity,Positive*%
%FSLAX46Y46*%
G04 Gerber Fmt 4.6, Leading zero omitted, Abs format (unit mm)*
G04 Created by KiCad (PCBNEW 8.0.8) date 2025-01-20 02:54:04*
%MOMM*%
%LPD*%
G01*
G04 APERTURE LIST*
G04 Aperture macros list*
%AMRoundRect*
0 Rectangle with rounded corners*
0 $1 Rounding radius*
0 $2 $3 $4 $5 $6 $7 $8 $9 X,Y pos of 4 corners*
0 Add a 4 corners polygon primitive as box body*
4,1,4,$2,$3,$4,$5,$6,$7,$8,$9,$2,$3,0*
0 Add four circle primitives for the rounded corners*
1,1,$1+$1,$2,$3*
1,1,$1+$1,$4,$5*
1,1,$1+$1,$6,$7*
1,1,$1+$1,$8,$9*
0 Add four rect primitives between the rounded corners*
20,1,$1+$1,$2,$3,$4,$5,0*
20,1,$1+$1,$4,$5,$6,$7,0*
20,1,$1+$1,$6,$7,$8,$9,0*
20,1,$1+$1,$8,$9,$2,$3,0*%
G04 Aperture macros list end*
%TA.AperFunction,ComponentPad*%
%ADD10C,3.000000*%
%TD*%
%TA.AperFunction,ComponentPad*%
%ADD11C,1.600000*%
%TD*%
%TA.AperFunction,ComponentPad*%
%ADD12RoundRect,0.250001X-0.799999X-0.799999X0.799999X-0.799999X0.799999X0.799999X-0.799999X0.799999X0*%
%TD*%
%TA.AperFunction,ComponentPad*%
%ADD13O,2.500000X1.600000*%
%TD*%
%TA.AperFunction,ComponentPad*%
%ADD14O,7.000000X3.500000*%
%TD*%
%TA.AperFunction,ViaPad*%
%ADD15C,0.600000*%
%TD*%
%ADD16C,0.300000*%
%ADD17C,0.350000*%
G04 APERTURE END LIST*
D10*
%TO.P,FT50-43,1*%
%TO.N,GND*%
X155000000Y-95000000D03*
%TO.P,FT50-43,2*%
%TO.N,Net-(ANT1-Pin_1)*%
X170000000Y-95000000D03*
%TO.P,FT50-43,3*%
%TO.N,Net-(BNC1-In)*%
X155000000Y-88000000D03*
%TO.P,FT50-43,4*%
%TO.N,Net-(ANT2-Pin_1)*%
X170000000Y-88000000D03*
%TD*%
D11*
%TO.P,C1,1*%
%TO.N,Net-(BNC1-In)*%
X151500000Y-92000000D03*
%TO.P,C1,2*%
%TO.N,GND*%
X151500000Y-97000000D03*
%TD*%
D12*
%TO.P,EF,1,Pin_1*%
%TO.N,Net-(ANT1-Pin_1)*%
X174000000Y-98200000D03*
%TD*%
%TO.P,DP,1,Pin_1*%
%TO.N,Net-(ANT2-Pin_1)*%
X174000000Y-85500000D03*
%TD*%
D13*
%TO.P,BNC,1,In*%
%TO.N,Net-(BNC1-In)*%
X147080000Y-92000000D03*
D14*
%TO.P,BNC,2,Ext*%
%TO.N,GND*%
X142000000Y-97080000D03*
D13*
X147080000Y-94540000D03*
D14*
X142000000Y-86920000D03*
%TD*%
D15*
%TO.N,GND*%
X175000000Y-83500000D03*
X154000000Y-92250000D03*
X161000000Y-83500000D03*
X171000000Y-83500000D03*
X172000000Y-86750000D03*
X173500000Y-93750000D03*
X167000000Y-100500000D03*
X175500000Y-96250000D03*
X175250000Y-87750000D03*
X151000000Y-100500000D03*
X141000000Y-100500000D03*
X161000000Y-100500000D03*
X134000000Y-95000000D03*
X137000000Y-100500000D03*
X165000000Y-100500000D03*
X171000000Y-100500000D03*
X145000000Y-100500000D03*
X134000000Y-89000000D03*
X134000000Y-87000000D03*
X135000000Y-100500000D03*
X172000000Y-93250000D03*
X148500000Y-90250000D03*
X139000000Y-100500000D03*
X157000000Y-83500000D03*
X152250000Y-93750000D03*
X174750000Y-94750000D03*
X157000000Y-100500000D03*
X137000000Y-83500000D03*
X165000000Y-83500000D03*
X134000000Y-85000000D03*
X163000000Y-83500000D03*
X173000000Y-100500000D03*
X153000000Y-100500000D03*
X134000000Y-91000000D03*
X171750000Y-97000000D03*
X159000000Y-100500000D03*
X150750000Y-90000000D03*
X145000000Y-83500000D03*
X155000000Y-83500000D03*
X153000000Y-83500000D03*
X163000000Y-100500000D03*
X149500000Y-94000000D03*
X173250000Y-89500000D03*
X155000000Y-100500000D03*
X139000000Y-83500000D03*
X155500000Y-90750000D03*
X147000000Y-83500000D03*
X143000000Y-100500000D03*
X141000000Y-83500000D03*
X134000000Y-93000000D03*
X152250000Y-88500000D03*
X169000000Y-100500000D03*
X169000000Y-83500000D03*
X134000000Y-99000000D03*
X149000000Y-83500000D03*
X134000000Y-97000000D03*
X135000000Y-83500000D03*
X174500000Y-89000000D03*
X172000000Y-89500000D03*
X143000000Y-83500000D03*
X167000000Y-83500000D03*
X175000000Y-100500000D03*
X151000000Y-83500000D03*
X149000000Y-100500000D03*
X173000000Y-83500000D03*
X147000000Y-100500000D03*
X159000000Y-83500000D03*
%TD*%
%TA.AperFunction,Conductor*%
%TO.N,GND*%
G36*
X175942539Y-83020185D02*
G01*
X175988294Y-83072989D01*
X175999500Y-83124500D01*
X175999500Y-100875500D01*
X175979815Y-100942539D01*
X175927011Y-100988294D01*
X175875500Y-100999500D01*
X133624500Y-100999500D01*
X133557461Y-100979815D01*
X133511706Y-100927011D01*
X133500500Y-100875500D01*
X133500500Y-97349984D01*
X172449500Y-97349984D01*
X172449500Y-99050015D01*
X172460000Y-99152795D01*
X172460001Y-99152796D01*
X172515186Y-99319335D01*
X172515187Y-99319337D01*
X172607286Y-99468651D01*
X172607289Y-99468655D01*
X172731344Y-99592710D01*
X172731348Y-99592713D01*
X172880662Y-99684812D01*
X172880664Y-99684813D01*
X172880666Y-99684814D01*
X173047203Y-99739999D01*
X173149992Y-99750500D01*
X173149997Y-99750500D01*
X174850003Y-99750500D01*
X174850008Y-99750500D01*
X174952797Y-99739999D01*
X175119334Y-99684814D01*
X175268655Y-99592711D01*
X175392711Y-99468655D01*
X175484814Y-99319334D01*
X175539999Y-99152797D01*
X175550500Y-99050008D01*
X175550500Y-97349992D01*
X175539999Y-97247203D01*
X175484814Y-97080666D01*
X175425926Y-96985195D01*
X175392713Y-96931348D01*
X175392710Y-96931344D01*
X175268655Y-96807289D01*
X175268651Y-96807286D01*
X175119337Y-96715187D01*
X175119335Y-96715186D01*
X175034950Y-96687224D01*
X174952797Y-96660001D01*
X174952795Y-96660000D01*
X174850015Y-96649500D01*
X174850008Y-96649500D01*
X173149992Y-96649500D01*
X173149984Y-96649500D01*
X173047204Y-96660000D01*
X173047203Y-96660001D01*
X172880664Y-96715186D01*
X172880662Y-96715187D01*
X172731348Y-96807286D01*
X172731344Y-96807289D01*
X172607289Y-96931344D01*
X172607286Y-96931348D01*
X172515187Y-97080662D01*
X172515186Y-97080664D01*
X172460001Y-97247203D01*
X172460000Y-97247204D01*
X172449500Y-97349984D01*
X133500500Y-97349984D01*
X133500500Y-94999998D01*
X167994390Y-94999998D01*
X167994390Y-95000001D01*
X168014804Y-95285433D01*
X168075628Y-95565037D01*
X168175635Y-95833166D01*
X168312770Y-96084309D01*
X168312775Y-96084317D01*
X168484254Y-96313387D01*
X168484270Y-96313405D01*
X168686594Y-96515729D01*
X168686612Y-96515745D01*
X168915682Y-96687224D01*
X168915690Y-96687229D01*
X169166833Y-96824364D01*
X169166832Y-96824364D01*
X169166836Y-96824365D01*
X169166839Y-96824367D01*
X169434954Y-96924369D01*
X169434960Y-96924370D01*
X169434962Y-96924371D01*
X169714566Y-96985195D01*
X169714568Y-96985195D01*
X169714572Y-96985196D01*
X169968220Y-97003337D01*
X169999999Y-97005610D01*
X170000000Y-97005610D01*
X170000001Y-97005610D01*
X170028595Y-97003564D01*
X170285428Y-96985196D01*
X170532983Y-96931344D01*
X170565037Y-96924371D01*
X170565037Y-96924370D01*
X170565046Y-96924369D01*
X170833161Y-96824367D01*
X171084315Y-96687226D01*
X171313395Y-96515739D01*
X171515739Y-96313395D01*
X171687226Y-96084315D01*
X171824367Y-95833161D01*
X171924369Y-95565046D01*
X171985196Y-95285428D01*
X172005610Y-95000000D01*
X171985196Y-94714572D01*
X171924369Y-94434954D01*
X171824367Y-94166839D01*
X171687226Y-93915685D01*
X171687224Y-93915682D01*
X171515745Y-93686612D01*
X171515729Y-93686594D01*
X171313405Y-93484270D01*
X171313387Y-93484254D01*
X171084317Y-93312775D01*
X171084309Y-93312770D01*
X170833166Y-93175635D01*
X170833167Y-93175635D01*
X170663316Y-93112284D01*
X170565046Y-93075631D01*
X170565043Y-93075630D01*
X170565037Y-93075628D01*
X170285433Y-93014804D01*
X170000001Y-92994390D01*
X169999999Y-92994390D01*
X169714566Y-93014804D01*
X169434962Y-93075628D01*
X169166833Y-93175635D01*
X168915690Y-93312770D01*
X168915682Y-93312775D01*
X168686612Y-93484254D01*
X168686594Y-93484270D01*
X168484270Y-93686594D01*
X168484254Y-93686612D01*
X168312775Y-93915682D01*
X168312770Y-93915690D01*
X168175635Y-94166833D01*
X168075628Y-94434962D01*
X168014804Y-94714566D01*
X167994390Y-94999998D01*
X133500500Y-94999998D01*
X133500500Y-91897648D01*
X145329500Y-91897648D01*
X145329500Y-92102351D01*
X145361522Y-92304534D01*
X145424781Y-92499223D01*
X145517715Y-92681613D01*
X145638028Y-92847213D01*
X145782786Y-92991971D01*
X145937749Y-93104556D01*
X145948390Y-93112287D01*
X146042964Y-93160475D01*
X146130776Y-93205218D01*
X146130778Y-93205218D01*
X146130781Y-93205220D01*
X146197007Y-93226738D01*
X146325465Y-93268477D01*
X146390831Y-93278830D01*
X146527648Y-93300500D01*
X146527649Y-93300500D01*
X147632351Y-93300500D01*
X147632352Y-93300500D01*
X147834534Y-93268477D01*
X148029219Y-93205220D01*
X148211610Y-93112287D01*
X148355511Y-93007738D01*
X148377213Y-92991971D01*
X148377215Y-92991968D01*
X148377219Y-92991966D01*
X148521966Y-92847219D01*
X148521968Y-92847215D01*
X148521971Y-92847213D01*
X148574732Y-92774590D01*
X148642287Y-92681610D01*
X148735220Y-92499219D01*
X148798477Y-92304534D01*
X148830500Y-92102352D01*
X148830500Y-91999998D01*
X150194532Y-91999998D01*
X150194532Y-92000001D01*
X150214364Y-92226686D01*
X150214366Y-92226697D01*
X150273258Y-92446488D01*
X150273261Y-92446497D01*
X150369431Y-92652732D01*
X150369432Y-92652734D01*
X150499954Y-92839141D01*
X150660858Y-93000045D01*
X150660861Y-93000047D01*
X150847266Y-93130568D01*
X151053504Y-93226739D01*
X151273308Y-93285635D01*
X151435230Y-93299801D01*
X151499998Y-93305468D01*
X151500000Y-93305468D01*
X151500002Y-93305468D01*
X151556784Y-93300500D01*
X151726692Y-93285635D01*
X151946496Y-93226739D01*
X152152734Y-93130568D01*
X152339139Y-93000047D01*
X152500047Y-92839139D01*
X152630568Y-92652734D01*
X152726739Y-92446496D01*
X152785635Y-92226692D01*
X152805468Y-92000000D01*
X152796719Y-91899994D01*
X172494357Y-91899994D01*
X172494357Y-91900005D01*
X172514890Y-92147812D01*
X172514892Y-92147824D01*
X172575936Y-92388881D01*
X172675826Y-92616606D01*
X172811833Y-92824782D01*
X172832482Y-92847213D01*
X172980256Y-93007738D01*
X173176491Y-93160474D01*
X173395190Y-93278828D01*
X173630386Y-93359571D01*
X173875665Y-93400500D01*
X174124335Y-93400500D01*
X174369614Y-93359571D01*
X174604810Y-93278828D01*
X174823509Y-93160474D01*
X175019744Y-93007738D01*
X175188164Y-92824785D01*
X175324173Y-92616607D01*
X175424063Y-92388881D01*
X175485108Y-92147821D01*
X175488876Y-92102351D01*
X175505643Y-91900005D01*
X175505643Y-91899994D01*
X175485109Y-91652187D01*
X175485107Y-91652175D01*
X175424063Y-91411118D01*
X175324173Y-91183393D01*
X175188166Y-90975217D01*
X175166557Y-90951744D01*
X175019744Y-90792262D01*
X174823509Y-90639526D01*
X174823507Y-90639525D01*
X174823506Y-90639524D01*
X174604811Y-90521172D01*
X174604802Y-90521169D01*
X174369616Y-90440429D01*
X174124335Y-90399500D01*
X173875665Y-90399500D01*
X173630383Y-90440429D01*
X173395197Y-90521169D01*
X173395188Y-90521172D01*
X173176493Y-90639524D01*
X172980257Y-90792261D01*
X172811833Y-90975217D01*
X172675826Y-91183393D01*
X172575936Y-91411118D01*
X172514892Y-91652175D01*
X172514890Y-91652187D01*
X172494357Y-91899994D01*
X152796719Y-91899994D01*
X152785635Y-91773308D01*
X152726739Y-91553504D01*
X152630568Y-91347266D01*
X152500047Y-91160861D01*
X152500045Y-91160858D01*
X152339141Y-90999954D01*
X152152734Y-90869432D01*
X152152732Y-90869431D01*
X151946497Y-90773261D01*
X151946488Y-90773258D01*
X151726697Y-90714366D01*
X151726693Y-90714365D01*
X151726692Y-90714365D01*
X151726691Y-90714364D01*
X151726686Y-90714364D01*
X151500002Y-90694532D01*
X151499998Y-90694532D01*
X151273313Y-90714364D01*
X151273302Y-90714366D01*
X151053511Y-90773258D01*
X151053502Y-90773261D01*
X150847267Y-90869431D01*
X150847265Y-90869432D01*
X150660858Y-90999954D01*
X150499954Y-91160858D01*
X150369432Y-91347265D01*
X150369431Y-91347267D01*
X150273261Y-91553502D01*
X150273258Y-91553511D01*
X150214366Y-91773302D01*
X150214364Y-91773313D01*
X150194532Y-91999998D01*
X148830500Y-91999998D01*
X148830500Y-91897648D01*
X148798477Y-91695466D01*
X148735220Y-91500781D01*
X148735218Y-91500778D01*
X148735218Y-91500776D01*
X148689534Y-91411118D01*
X148642287Y-91318390D01*
X148634556Y-91307749D01*
X148521971Y-91152786D01*
X148377213Y-91008028D01*
X148211613Y-90887715D01*
X148211612Y-90887714D01*
X148211610Y-90887713D01*
X148154653Y-90858691D01*
X148029223Y-90794781D01*
X147834534Y-90731522D01*
X147659995Y-90703878D01*
X147632352Y-90699500D01*
X146527648Y-90699500D01*
X146503329Y-90703351D01*
X146325465Y-90731522D01*
X146130776Y-90794781D01*
X145948386Y-90887715D01*
X145782786Y-91008028D01*
X145638028Y-91152786D01*
X145517715Y-91318386D01*
X145424781Y-91500776D01*
X145361522Y-91695465D01*
X145329500Y-91897648D01*
X133500500Y-91897648D01*
X133500500Y-87999998D01*
X152994390Y-87999998D01*
X152994390Y-88000001D01*
X153014804Y-88285433D01*
X153075628Y-88565037D01*
X153175635Y-88833166D01*
X153312770Y-89084309D01*
X153312775Y-89084317D01*
X153484254Y-89313387D01*
X153484270Y-89313405D01*
X153686594Y-89515729D01*
X153686612Y-89515745D01*
X153915682Y-89687224D01*
X153915690Y-89687229D01*
X154166833Y-89824364D01*
X154166832Y-89824364D01*
X154166836Y-89824365D01*
X154166839Y-89824367D01*
X154434954Y-89924369D01*
X154434960Y-89924370D01*
X154434962Y-89924371D01*
X154714566Y-89985195D01*
X154714568Y-89985195D01*
X154714572Y-89985196D01*
X154968220Y-90003337D01*
X154999999Y-90005610D01*
X155000000Y-90005610D01*
X155000001Y-90005610D01*
X155028595Y-90003564D01*
X155285428Y-89985196D01*
X155565046Y-89924369D01*
X155833161Y-89824367D01*
X156084315Y-89687226D01*
X156313395Y-89515739D01*
X156515739Y-89313395D01*
X156687226Y-89084315D01*
X156824367Y-88833161D01*
X156924369Y-88565046D01*
X156985196Y-88285428D01*
X157005610Y-88000000D01*
X157005610Y-87999998D01*
X167994390Y-87999998D01*
X167994390Y-88000001D01*
X168014804Y-88285433D01*
X168075628Y-88565037D01*
X168175635Y-88833166D01*
X168312770Y-89084309D01*
X168312775Y-89084317D01*
X168484254Y-89313387D01*
X168484270Y-89313405D01*
X168686594Y-89515729D01*
X168686612Y-89515745D01*
X168915682Y-89687224D01*
X168915690Y-89687229D01*
X169166833Y-89824364D01*
X169166832Y-89824364D01*
X169166836Y-89824365D01*
X169166839Y-89824367D01*
X169434954Y-89924369D01*
X169434960Y-89924370D01*
X169434962Y-89924371D01*
X169714566Y-89985195D01*
X169714568Y-89985195D01*
X169714572Y-89985196D01*
X169968220Y-90003337D01*
X169999999Y-90005610D01*
X170000000Y-90005610D01*
X170000001Y-90005610D01*
X170028595Y-90003564D01*
X170285428Y-89985196D01*
X170565046Y-89924369D01*
X170833161Y-89824367D01*
X171084315Y-89687226D01*
X171313395Y-89515739D01*
X171515739Y-89313395D01*
X171687226Y-89084315D01*
X171824367Y-88833161D01*
X171924369Y-88565046D01*
X171985196Y-88285428D01*
X172005610Y-88000000D01*
X171985196Y-87714572D01*
X171924369Y-87434954D01*
X171824367Y-87166839D01*
X171760840Y-87050499D01*
X171687229Y-86915690D01*
X171687224Y-86915682D01*
X171515745Y-86686612D01*
X171515729Y-86686594D01*
X171313405Y-86484270D01*
X171313387Y-86484254D01*
X171084317Y-86312775D01*
X171084309Y-86312770D01*
X170833166Y-86175635D01*
X170833167Y-86175635D01*
X170725915Y-86135632D01*
X170565046Y-86075631D01*
X170565043Y-86075630D01*
X170565037Y-86075628D01*
X170285433Y-86014804D01*
X170000001Y-85994390D01*
X169999999Y-85994390D01*
X169714566Y-86014804D01*
X169434962Y-86075628D01*
X169166833Y-86175635D01*
X168915690Y-86312770D01*
X168915682Y-86312775D01*
X168686612Y-86484254D01*
X168686594Y-86484270D01*
X168484270Y-86686594D01*
X168484254Y-86686612D01*
X168312775Y-86915682D01*
X168312770Y-86915690D01*
X168175635Y-87166833D01*
X168075628Y-87434962D01*
X168014804Y-87714566D01*
X167994390Y-87999998D01*
X157005610Y-87999998D01*
X156985196Y-87714572D01*
X156924369Y-87434954D01*
X156824367Y-87166839D01*
X156760840Y-87050499D01*
X156687229Y-86915690D01*
X156687224Y-86915682D01*
X156515745Y-86686612D01*
X156515729Y-86686594D01*
X156313405Y-86484270D01*
X156313387Y-86484254D01*
X156084317Y-86312775D01*
X156084309Y-86312770D01*
X155833166Y-86175635D01*
X155833167Y-86175635D01*
X155725915Y-86135632D01*
X155565046Y-86075631D01*
X155565043Y-86075630D01*
X155565037Y-86075628D01*
X155285433Y-86014804D01*
X155000001Y-85994390D01*
X154999999Y-85994390D01*
X154714566Y-86014804D01*
X154434962Y-86075628D01*
X154166833Y-86175635D01*
X153915690Y-86312770D01*
X153915682Y-86312775D01*
X153686612Y-86484254D01*
X153686594Y-86484270D01*
X153484270Y-86686594D01*
X153484254Y-86686612D01*
X153312775Y-86915682D01*
X153312770Y-86915690D01*
X153175635Y-87166833D01*
X153075628Y-87434962D01*
X153014804Y-87714566D01*
X152994390Y-87999998D01*
X133500500Y-87999998D01*
X133500500Y-84649984D01*
X172449500Y-84649984D01*
X172449500Y-86350015D01*
X172460000Y-86452795D01*
X172460001Y-86452796D01*
X172515186Y-86619335D01*
X172515187Y-86619337D01*
X172607286Y-86768651D01*
X172607289Y-86768655D01*
X172731344Y-86892710D01*
X172731348Y-86892713D01*
X172880662Y-86984812D01*
X172880664Y-86984813D01*
X172880666Y-86984814D01*
X173047203Y-87039999D01*
X173149992Y-87050500D01*
X173149997Y-87050500D01*
X174850003Y-87050500D01*
X174850008Y-87050500D01*
X174952797Y-87039999D01*
X175119334Y-86984814D01*
X175268655Y-86892711D01*
X175392711Y-86768655D01*
X175484814Y-86619334D01*
X175539999Y-86452797D01*
X175550500Y-86350008D01*
X175550500Y-84649992D01*
X175539999Y-84547203D01*
X175484814Y-84380666D01*
X175392711Y-84231345D01*
X175268655Y-84107289D01*
X175268651Y-84107286D01*
X175119337Y-84015187D01*
X175119335Y-84015186D01*
X175036065Y-83987593D01*
X174952797Y-83960001D01*
X174952795Y-83960000D01*
X174850015Y-83949500D01*
X174850008Y-83949500D01*
X173149992Y-83949500D01*
X173149984Y-83949500D01*
X173047204Y-83960000D01*
X173047203Y-83960001D01*
X172880664Y-84015186D01*
X172880662Y-84015187D01*
X172731348Y-84107286D01*
X172731344Y-84107289D01*
X172607289Y-84231344D01*
X172607286Y-84231348D01*
X172515187Y-84380662D01*
X172515186Y-84380664D01*
X172460001Y-84547203D01*
X172460000Y-84547204D01*
X172449500Y-84649984D01*
X133500500Y-84649984D01*
X133500500Y-83124500D01*
X133520185Y-83057461D01*
X133572989Y-83011706D01*
X133624500Y-83000500D01*
X175875500Y-83000500D01*
X175942539Y-83020185D01*
G37*
%TD.AperFunction*%
%TD*%
D16*
X175000000Y-83500000D03*
X154000000Y-92250000D03*
X161000000Y-83500000D03*
X171000000Y-83500000D03*
X172000000Y-86750000D03*
X173500000Y-93750000D03*
X167000000Y-100500000D03*
X175500000Y-96250000D03*
X175250000Y-87750000D03*
X151000000Y-100500000D03*
X141000000Y-100500000D03*
X161000000Y-100500000D03*
X134000000Y-95000000D03*
X137000000Y-100500000D03*
X165000000Y-100500000D03*
X171000000Y-100500000D03*
X145000000Y-100500000D03*
X134000000Y-89000000D03*
X134000000Y-87000000D03*
X135000000Y-100500000D03*
X172000000Y-93250000D03*
X148500000Y-90250000D03*
X139000000Y-100500000D03*
X157000000Y-83500000D03*
X152250000Y-93750000D03*
X174750000Y-94750000D03*
X157000000Y-100500000D03*
X137000000Y-83500000D03*
X165000000Y-83500000D03*
X134000000Y-85000000D03*
X163000000Y-83500000D03*
X173000000Y-100500000D03*
X153000000Y-100500000D03*
X134000000Y-91000000D03*
X171750000Y-97000000D03*
X159000000Y-100500000D03*
X150750000Y-90000000D03*
X145000000Y-83500000D03*
X155000000Y-83500000D03*
X153000000Y-83500000D03*
X163000000Y-100500000D03*
X149500000Y-94000000D03*
X173250000Y-89500000D03*
X155000000Y-100500000D03*
X139000000Y-83500000D03*
X155500000Y-90750000D03*
X147000000Y-83500000D03*
X143000000Y-100500000D03*
X141000000Y-83500000D03*
X134000000Y-93000000D03*
X152250000Y-88500000D03*
X169000000Y-100500000D03*
X169000000Y-83500000D03*
X134000000Y-99000000D03*
X149000000Y-83500000D03*
X134000000Y-97000000D03*
X135000000Y-83500000D03*
X174500000Y-89000000D03*
X172000000Y-89500000D03*
X143000000Y-83500000D03*
X167000000Y-83500000D03*
X175000000Y-100500000D03*
X151000000Y-83500000D03*
X149000000Y-100500000D03*
X173000000Y-83500000D03*
X147000000Y-100500000D03*
X159000000Y-83500000D03*
D17*
X155000000Y-95000000D03*
X170000000Y-95000000D03*
X155000000Y-88000000D03*
X170000000Y-88000000D03*
X151500000Y-92000000D03*
X151500000Y-97000000D03*
X174000000Y-98200000D03*
X174000000Y-85500000D03*
X147080000Y-92000000D03*
X142000000Y-97080000D03*
X147080000Y-94540000D03*
X142000000Y-86920000D03*
M02*
