M48
METRIC,TZ
T1C0.300
T2C0.800
T3C0.890
T4C1.100
T5C1.200
T6C2.010
%
G90
G05
T1
X134000Y-85000
X134000Y-87000
X134000Y-89000
X134000Y-91000
X134000Y-93000
X134000Y-95000
X134000Y-97000
X134000Y-99000
X135000Y-83500
X135000Y-100500
X137000Y-83500
X137000Y-100500
X139000Y-83500
X139000Y-100500
X141000Y-83500
X141000Y-100500
X143000Y-83500
X143000Y-100500
X145000Y-83500
X145000Y-100500
X147000Y-83500
X147000Y-100500
X148500Y-90250
X149000Y-83500
X149000Y-100500
X149500Y-94000
X150750Y-90000
X151000Y-83500
X151000Y-100500
X152250Y-88500
X152250Y-93750
X153000Y-83500
X153000Y-100500
X154000Y-92250
X155000Y-83500
X155000Y-100500
X155500Y-90750
X157000Y-83500
X157000Y-100500
X159000Y-83500
X159000Y-100500
X161000Y-83500
X161000Y-100500
X163000Y-83500
X163000Y-100500
X165000Y-83500
X165000Y-100500
X167000Y-83500
X167000Y-100500
X169000Y-83500
X169000Y-100500
X171000Y-83500
X171000Y-100500
X171750Y-97000
X172000Y-86750
X172000Y-89500
X172000Y-93250
X173000Y-83500
X173000Y-100500
X173250Y-89500
X173500Y-93750
X174500Y-89000
X174750Y-94750
X175000Y-83500
X175000Y-100500
X175250Y-87750
X175500Y-96250
T2
X151500Y-92000
X151500Y-97000
T3
X147080Y-92000
X147080Y-94540
T4
X174000Y-85500
X174000Y-98200
T5
X155000Y-88000
X155000Y-95000
X170000Y-88000
X170000Y-95000
T6
X142000Y-86920
X142000Y-97080
M30
