%TF.GenerationSoftware,KiCad,Pcbnew,8.0.8*%
%TF.CreationDate,2025-01-20T02:54:04+01:00*%
%TF.ProjectId,EFHW unun,45464857-2075-46e7-956e-2e6b69636164,rev?*%
%TF.SameCoordinates,Original*%
%TF.FileFunction,Legend,Top*%
%TF.FilePolarity,Positive*%
%FSLAX46Y46*%
G04 Gerber Fmt 4.6, Leading zero omitted, Abs format (unit mm)*
G04 Created by KiCad (PCBNEW 8.0.8) date 2025-01-20 02:54:04*
%MOMM*%
%LPD*%
G01*
G04 APERTURE LIST*
%ADD10C,0.100000*%
%ADD11C,0.150000*%
%ADD12C,0.125000*%
%ADD13C,0.120000*%
%ADD14C,0.350000*%
G04 APERTURE END LIST*
D10*
X154425312Y-97134990D02*
X154349122Y-97096895D01*
X154349122Y-97096895D02*
X154234836Y-97096895D01*
X154234836Y-97096895D02*
X154120550Y-97134990D01*
X154120550Y-97134990D02*
X154044360Y-97211180D01*
X154044360Y-97211180D02*
X154006265Y-97287371D01*
X154006265Y-97287371D02*
X153968169Y-97439752D01*
X153968169Y-97439752D02*
X153968169Y-97554038D01*
X153968169Y-97554038D02*
X154006265Y-97706419D01*
X154006265Y-97706419D02*
X154044360Y-97782609D01*
X154044360Y-97782609D02*
X154120550Y-97858800D01*
X154120550Y-97858800D02*
X154234836Y-97896895D01*
X154234836Y-97896895D02*
X154311027Y-97896895D01*
X154311027Y-97896895D02*
X154425312Y-97858800D01*
X154425312Y-97858800D02*
X154463408Y-97820704D01*
X154463408Y-97820704D02*
X154463408Y-97554038D01*
X154463408Y-97554038D02*
X154311027Y-97554038D01*
X154806265Y-97896895D02*
X154806265Y-97096895D01*
X154806265Y-97096895D02*
X155263408Y-97896895D01*
X155263408Y-97896895D02*
X155263408Y-97096895D01*
X155644360Y-97896895D02*
X155644360Y-97096895D01*
X155644360Y-97096895D02*
X155834836Y-97096895D01*
X155834836Y-97096895D02*
X155949122Y-97134990D01*
X155949122Y-97134990D02*
X156025312Y-97211180D01*
X156025312Y-97211180D02*
X156063407Y-97287371D01*
X156063407Y-97287371D02*
X156101503Y-97439752D01*
X156101503Y-97439752D02*
X156101503Y-97554038D01*
X156101503Y-97554038D02*
X156063407Y-97706419D01*
X156063407Y-97706419D02*
X156025312Y-97782609D01*
X156025312Y-97782609D02*
X155949122Y-97858800D01*
X155949122Y-97858800D02*
X155834836Y-97896895D01*
X155834836Y-97896895D02*
X155644360Y-97896895D01*
X153963408Y-85896895D02*
X153696741Y-85515942D01*
X153506265Y-85896895D02*
X153506265Y-85096895D01*
X153506265Y-85096895D02*
X153811027Y-85096895D01*
X153811027Y-85096895D02*
X153887217Y-85134990D01*
X153887217Y-85134990D02*
X153925312Y-85173085D01*
X153925312Y-85173085D02*
X153963408Y-85249276D01*
X153963408Y-85249276D02*
X153963408Y-85363561D01*
X153963408Y-85363561D02*
X153925312Y-85439752D01*
X153925312Y-85439752D02*
X153887217Y-85477847D01*
X153887217Y-85477847D02*
X153811027Y-85515942D01*
X153811027Y-85515942D02*
X153506265Y-85515942D01*
X154572931Y-85477847D02*
X154306265Y-85477847D01*
X154306265Y-85896895D02*
X154306265Y-85096895D01*
X154306265Y-85096895D02*
X154687217Y-85096895D01*
X155601503Y-85896895D02*
X155601503Y-85096895D01*
X155982455Y-85896895D02*
X155982455Y-85096895D01*
X155982455Y-85096895D02*
X156439598Y-85896895D01*
X156439598Y-85896895D02*
X156439598Y-85096895D01*
X160718169Y-99458800D02*
X160832455Y-99496895D01*
X160832455Y-99496895D02*
X161022931Y-99496895D01*
X161022931Y-99496895D02*
X161099122Y-99458800D01*
X161099122Y-99458800D02*
X161137217Y-99420704D01*
X161137217Y-99420704D02*
X161175312Y-99344514D01*
X161175312Y-99344514D02*
X161175312Y-99268323D01*
X161175312Y-99268323D02*
X161137217Y-99192133D01*
X161137217Y-99192133D02*
X161099122Y-99154038D01*
X161099122Y-99154038D02*
X161022931Y-99115942D01*
X161022931Y-99115942D02*
X160870550Y-99077847D01*
X160870550Y-99077847D02*
X160794360Y-99039752D01*
X160794360Y-99039752D02*
X160756265Y-99001657D01*
X160756265Y-99001657D02*
X160718169Y-98925466D01*
X160718169Y-98925466D02*
X160718169Y-98849276D01*
X160718169Y-98849276D02*
X160756265Y-98773085D01*
X160756265Y-98773085D02*
X160794360Y-98734990D01*
X160794360Y-98734990D02*
X160870550Y-98696895D01*
X160870550Y-98696895D02*
X161061027Y-98696895D01*
X161061027Y-98696895D02*
X161175312Y-98734990D01*
X161899122Y-98696895D02*
X161518170Y-98696895D01*
X161518170Y-98696895D02*
X161480074Y-99077847D01*
X161480074Y-99077847D02*
X161518170Y-99039752D01*
X161518170Y-99039752D02*
X161594360Y-99001657D01*
X161594360Y-99001657D02*
X161784836Y-99001657D01*
X161784836Y-99001657D02*
X161861027Y-99039752D01*
X161861027Y-99039752D02*
X161899122Y-99077847D01*
X161899122Y-99077847D02*
X161937217Y-99154038D01*
X161937217Y-99154038D02*
X161937217Y-99344514D01*
X161937217Y-99344514D02*
X161899122Y-99420704D01*
X161899122Y-99420704D02*
X161861027Y-99458800D01*
X161861027Y-99458800D02*
X161784836Y-99496895D01*
X161784836Y-99496895D02*
X161594360Y-99496895D01*
X161594360Y-99496895D02*
X161518170Y-99458800D01*
X161518170Y-99458800D02*
X161480074Y-99420704D01*
X162432456Y-98696895D02*
X162508646Y-98696895D01*
X162508646Y-98696895D02*
X162584837Y-98734990D01*
X162584837Y-98734990D02*
X162622932Y-98773085D01*
X162622932Y-98773085D02*
X162661027Y-98849276D01*
X162661027Y-98849276D02*
X162699122Y-99001657D01*
X162699122Y-99001657D02*
X162699122Y-99192133D01*
X162699122Y-99192133D02*
X162661027Y-99344514D01*
X162661027Y-99344514D02*
X162622932Y-99420704D01*
X162622932Y-99420704D02*
X162584837Y-99458800D01*
X162584837Y-99458800D02*
X162508646Y-99496895D01*
X162508646Y-99496895D02*
X162432456Y-99496895D01*
X162432456Y-99496895D02*
X162356265Y-99458800D01*
X162356265Y-99458800D02*
X162318170Y-99420704D01*
X162318170Y-99420704D02*
X162280075Y-99344514D01*
X162280075Y-99344514D02*
X162241979Y-99192133D01*
X162241979Y-99192133D02*
X162241979Y-99001657D01*
X162241979Y-99001657D02*
X162280075Y-98849276D01*
X162280075Y-98849276D02*
X162318170Y-98773085D01*
X162318170Y-98773085D02*
X162356265Y-98734990D01*
X162356265Y-98734990D02*
X162432456Y-98696895D01*
X163041980Y-99496895D02*
X163041980Y-98696895D01*
X163041980Y-98696895D02*
X163499123Y-99496895D01*
X163499123Y-99496895D02*
X163499123Y-98696895D01*
X164146741Y-99077847D02*
X164261027Y-99115942D01*
X164261027Y-99115942D02*
X164299122Y-99154038D01*
X164299122Y-99154038D02*
X164337218Y-99230228D01*
X164337218Y-99230228D02*
X164337218Y-99344514D01*
X164337218Y-99344514D02*
X164299122Y-99420704D01*
X164299122Y-99420704D02*
X164261027Y-99458800D01*
X164261027Y-99458800D02*
X164184837Y-99496895D01*
X164184837Y-99496895D02*
X163880075Y-99496895D01*
X163880075Y-99496895D02*
X163880075Y-98696895D01*
X163880075Y-98696895D02*
X164146741Y-98696895D01*
X164146741Y-98696895D02*
X164222932Y-98734990D01*
X164222932Y-98734990D02*
X164261027Y-98773085D01*
X164261027Y-98773085D02*
X164299122Y-98849276D01*
X164299122Y-98849276D02*
X164299122Y-98925466D01*
X164299122Y-98925466D02*
X164261027Y-99001657D01*
X164261027Y-99001657D02*
X164222932Y-99039752D01*
X164222932Y-99039752D02*
X164146741Y-99077847D01*
X164146741Y-99077847D02*
X163880075Y-99077847D01*
X168213408Y-98396895D02*
X167946741Y-98015942D01*
X167756265Y-98396895D02*
X167756265Y-97596895D01*
X167756265Y-97596895D02*
X168061027Y-97596895D01*
X168061027Y-97596895D02*
X168137217Y-97634990D01*
X168137217Y-97634990D02*
X168175312Y-97673085D01*
X168175312Y-97673085D02*
X168213408Y-97749276D01*
X168213408Y-97749276D02*
X168213408Y-97863561D01*
X168213408Y-97863561D02*
X168175312Y-97939752D01*
X168175312Y-97939752D02*
X168137217Y-97977847D01*
X168137217Y-97977847D02*
X168061027Y-98015942D01*
X168061027Y-98015942D02*
X167756265Y-98015942D01*
X168822931Y-97977847D02*
X168556265Y-97977847D01*
X168556265Y-98396895D02*
X168556265Y-97596895D01*
X168556265Y-97596895D02*
X168937217Y-97596895D01*
X170003884Y-97596895D02*
X170156265Y-97596895D01*
X170156265Y-97596895D02*
X170232455Y-97634990D01*
X170232455Y-97634990D02*
X170308646Y-97711180D01*
X170308646Y-97711180D02*
X170346741Y-97863561D01*
X170346741Y-97863561D02*
X170346741Y-98130228D01*
X170346741Y-98130228D02*
X170308646Y-98282609D01*
X170308646Y-98282609D02*
X170232455Y-98358800D01*
X170232455Y-98358800D02*
X170156265Y-98396895D01*
X170156265Y-98396895D02*
X170003884Y-98396895D01*
X170003884Y-98396895D02*
X169927693Y-98358800D01*
X169927693Y-98358800D02*
X169851503Y-98282609D01*
X169851503Y-98282609D02*
X169813407Y-98130228D01*
X169813407Y-98130228D02*
X169813407Y-97863561D01*
X169813407Y-97863561D02*
X169851503Y-97711180D01*
X169851503Y-97711180D02*
X169927693Y-97634990D01*
X169927693Y-97634990D02*
X170003884Y-97596895D01*
X170689598Y-97596895D02*
X170689598Y-98244514D01*
X170689598Y-98244514D02*
X170727693Y-98320704D01*
X170727693Y-98320704D02*
X170765788Y-98358800D01*
X170765788Y-98358800D02*
X170841979Y-98396895D01*
X170841979Y-98396895D02*
X170994360Y-98396895D01*
X170994360Y-98396895D02*
X171070550Y-98358800D01*
X171070550Y-98358800D02*
X171108645Y-98320704D01*
X171108645Y-98320704D02*
X171146741Y-98244514D01*
X171146741Y-98244514D02*
X171146741Y-97596895D01*
X171413407Y-97596895D02*
X171870550Y-97596895D01*
X171641978Y-98396895D02*
X171641978Y-97596895D01*
D11*
X159738095Y-91431009D02*
X159404762Y-91431009D01*
X159404762Y-91954819D02*
X159404762Y-90954819D01*
X159404762Y-90954819D02*
X159880952Y-90954819D01*
X160119048Y-90954819D02*
X160690476Y-90954819D01*
X160404762Y-91954819D02*
X160404762Y-90954819D01*
X161500000Y-90954819D02*
X161023810Y-90954819D01*
X161023810Y-90954819D02*
X160976191Y-91431009D01*
X160976191Y-91431009D02*
X161023810Y-91383390D01*
X161023810Y-91383390D02*
X161119048Y-91335771D01*
X161119048Y-91335771D02*
X161357143Y-91335771D01*
X161357143Y-91335771D02*
X161452381Y-91383390D01*
X161452381Y-91383390D02*
X161500000Y-91431009D01*
X161500000Y-91431009D02*
X161547619Y-91526247D01*
X161547619Y-91526247D02*
X161547619Y-91764342D01*
X161547619Y-91764342D02*
X161500000Y-91859580D01*
X161500000Y-91859580D02*
X161452381Y-91907200D01*
X161452381Y-91907200D02*
X161357143Y-91954819D01*
X161357143Y-91954819D02*
X161119048Y-91954819D01*
X161119048Y-91954819D02*
X161023810Y-91907200D01*
X161023810Y-91907200D02*
X160976191Y-91859580D01*
X162166667Y-90954819D02*
X162261905Y-90954819D01*
X162261905Y-90954819D02*
X162357143Y-91002438D01*
X162357143Y-91002438D02*
X162404762Y-91050057D01*
X162404762Y-91050057D02*
X162452381Y-91145295D01*
X162452381Y-91145295D02*
X162500000Y-91335771D01*
X162500000Y-91335771D02*
X162500000Y-91573866D01*
X162500000Y-91573866D02*
X162452381Y-91764342D01*
X162452381Y-91764342D02*
X162404762Y-91859580D01*
X162404762Y-91859580D02*
X162357143Y-91907200D01*
X162357143Y-91907200D02*
X162261905Y-91954819D01*
X162261905Y-91954819D02*
X162166667Y-91954819D01*
X162166667Y-91954819D02*
X162071429Y-91907200D01*
X162071429Y-91907200D02*
X162023810Y-91859580D01*
X162023810Y-91859580D02*
X161976191Y-91764342D01*
X161976191Y-91764342D02*
X161928572Y-91573866D01*
X161928572Y-91573866D02*
X161928572Y-91335771D01*
X161928572Y-91335771D02*
X161976191Y-91145295D01*
X161976191Y-91145295D02*
X162023810Y-91050057D01*
X162023810Y-91050057D02*
X162071429Y-91002438D01*
X162071429Y-91002438D02*
X162166667Y-90954819D01*
X162928572Y-91573866D02*
X163690477Y-91573866D01*
X164595238Y-91288152D02*
X164595238Y-91954819D01*
X164357143Y-90907200D02*
X164119048Y-91621485D01*
X164119048Y-91621485D02*
X164738095Y-91621485D01*
X165023810Y-90954819D02*
X165642857Y-90954819D01*
X165642857Y-90954819D02*
X165309524Y-91335771D01*
X165309524Y-91335771D02*
X165452381Y-91335771D01*
X165452381Y-91335771D02*
X165547619Y-91383390D01*
X165547619Y-91383390D02*
X165595238Y-91431009D01*
X165595238Y-91431009D02*
X165642857Y-91526247D01*
X165642857Y-91526247D02*
X165642857Y-91764342D01*
X165642857Y-91764342D02*
X165595238Y-91859580D01*
X165595238Y-91859580D02*
X165547619Y-91907200D01*
X165547619Y-91907200D02*
X165452381Y-91954819D01*
X165452381Y-91954819D02*
X165166667Y-91954819D01*
X165166667Y-91954819D02*
X165071429Y-91907200D01*
X165071429Y-91907200D02*
X165023810Y-91859580D01*
D12*
X151787404Y-94633332D02*
X151825500Y-94671428D01*
X151825500Y-94671428D02*
X151863595Y-94785713D01*
X151863595Y-94785713D02*
X151863595Y-94861904D01*
X151863595Y-94861904D02*
X151825500Y-94976190D01*
X151825500Y-94976190D02*
X151749309Y-95052380D01*
X151749309Y-95052380D02*
X151673119Y-95090475D01*
X151673119Y-95090475D02*
X151520738Y-95128571D01*
X151520738Y-95128571D02*
X151406452Y-95128571D01*
X151406452Y-95128571D02*
X151254071Y-95090475D01*
X151254071Y-95090475D02*
X151177880Y-95052380D01*
X151177880Y-95052380D02*
X151101690Y-94976190D01*
X151101690Y-94976190D02*
X151063595Y-94861904D01*
X151063595Y-94861904D02*
X151063595Y-94785713D01*
X151063595Y-94785713D02*
X151101690Y-94671428D01*
X151101690Y-94671428D02*
X151139785Y-94633332D01*
X151863595Y-93871428D02*
X151863595Y-94328571D01*
X151863595Y-94099999D02*
X151063595Y-94099999D01*
X151063595Y-94099999D02*
X151177880Y-94176190D01*
X151177880Y-94176190D02*
X151254071Y-94252380D01*
X151254071Y-94252380D02*
X151292166Y-94328571D01*
D11*
X173107143Y-95881009D02*
X173440476Y-95881009D01*
X173583333Y-96404819D02*
X173107143Y-96404819D01*
X173107143Y-96404819D02*
X173107143Y-95404819D01*
X173107143Y-95404819D02*
X173583333Y-95404819D01*
X174345238Y-95881009D02*
X174011905Y-95881009D01*
X174011905Y-96404819D02*
X174011905Y-95404819D01*
X174011905Y-95404819D02*
X174488095Y-95404819D01*
X172988095Y-88354819D02*
X172988095Y-87354819D01*
X172988095Y-87354819D02*
X173226190Y-87354819D01*
X173226190Y-87354819D02*
X173369047Y-87402438D01*
X173369047Y-87402438D02*
X173464285Y-87497676D01*
X173464285Y-87497676D02*
X173511904Y-87592914D01*
X173511904Y-87592914D02*
X173559523Y-87783390D01*
X173559523Y-87783390D02*
X173559523Y-87926247D01*
X173559523Y-87926247D02*
X173511904Y-88116723D01*
X173511904Y-88116723D02*
X173464285Y-88211961D01*
X173464285Y-88211961D02*
X173369047Y-88307200D01*
X173369047Y-88307200D02*
X173226190Y-88354819D01*
X173226190Y-88354819D02*
X172988095Y-88354819D01*
X173988095Y-88354819D02*
X173988095Y-87354819D01*
X173988095Y-87354819D02*
X174369047Y-87354819D01*
X174369047Y-87354819D02*
X174464285Y-87402438D01*
X174464285Y-87402438D02*
X174511904Y-87450057D01*
X174511904Y-87450057D02*
X174559523Y-87545295D01*
X174559523Y-87545295D02*
X174559523Y-87688152D01*
X174559523Y-87688152D02*
X174511904Y-87783390D01*
X174511904Y-87783390D02*
X174464285Y-87831009D01*
X174464285Y-87831009D02*
X174369047Y-87878628D01*
X174369047Y-87878628D02*
X173988095Y-87878628D01*
X142031009Y-92952380D02*
X142078628Y-92809523D01*
X142078628Y-92809523D02*
X142126247Y-92761904D01*
X142126247Y-92761904D02*
X142221485Y-92714285D01*
X142221485Y-92714285D02*
X142364342Y-92714285D01*
X142364342Y-92714285D02*
X142459580Y-92761904D01*
X142459580Y-92761904D02*
X142507200Y-92809523D01*
X142507200Y-92809523D02*
X142554819Y-92904761D01*
X142554819Y-92904761D02*
X142554819Y-93285713D01*
X142554819Y-93285713D02*
X141554819Y-93285713D01*
X141554819Y-93285713D02*
X141554819Y-92952380D01*
X141554819Y-92952380D02*
X141602438Y-92857142D01*
X141602438Y-92857142D02*
X141650057Y-92809523D01*
X141650057Y-92809523D02*
X141745295Y-92761904D01*
X141745295Y-92761904D02*
X141840533Y-92761904D01*
X141840533Y-92761904D02*
X141935771Y-92809523D01*
X141935771Y-92809523D02*
X141983390Y-92857142D01*
X141983390Y-92857142D02*
X142031009Y-92952380D01*
X142031009Y-92952380D02*
X142031009Y-93285713D01*
X142554819Y-92285713D02*
X141554819Y-92285713D01*
X141554819Y-92285713D02*
X142554819Y-91714285D01*
X142554819Y-91714285D02*
X141554819Y-91714285D01*
X142459580Y-90666666D02*
X142507200Y-90714285D01*
X142507200Y-90714285D02*
X142554819Y-90857142D01*
X142554819Y-90857142D02*
X142554819Y-90952380D01*
X142554819Y-90952380D02*
X142507200Y-91095237D01*
X142507200Y-91095237D02*
X142411961Y-91190475D01*
X142411961Y-91190475D02*
X142316723Y-91238094D01*
X142316723Y-91238094D02*
X142126247Y-91285713D01*
X142126247Y-91285713D02*
X141983390Y-91285713D01*
X141983390Y-91285713D02*
X141792914Y-91238094D01*
X141792914Y-91238094D02*
X141697676Y-91190475D01*
X141697676Y-91190475D02*
X141602438Y-91095237D01*
X141602438Y-91095237D02*
X141554819Y-90952380D01*
X141554819Y-90952380D02*
X141554819Y-90857142D01*
X141554819Y-90857142D02*
X141602438Y-90714285D01*
X141602438Y-90714285D02*
X141650057Y-90666666D01*
D13*
%TO.C,FT50-43*%
X166300000Y-91500000D02*
G75*
G02*
X158700000Y-91500000I-3800000J0D01*
G01*
X158700000Y-91500000D02*
G75*
G02*
X166300000Y-91500000I3800000J0D01*
G01*
X168903124Y-91500000D02*
G75*
G02*
X156096876Y-91500000I-6403124J0D01*
G01*
X156096876Y-91500000D02*
G75*
G02*
X168903124Y-91500000I6403124J0D01*
G01*
%TO.C,C1*%
X150130000Y-91880000D02*
X150130000Y-97120000D01*
X150445000Y-91880000D02*
X150130000Y-91880000D01*
X150445000Y-97120000D02*
X150130000Y-97120000D01*
X152870000Y-91880000D02*
X152555000Y-91880000D01*
X152870000Y-91880000D02*
X152870000Y-97120000D01*
X152870000Y-97120000D02*
X152555000Y-97120000D01*
%TO.C,BNC*%
X134380000Y-84500000D02*
X149380000Y-84500000D01*
X134380000Y-99500000D02*
X134380000Y-84500000D01*
X134580000Y-92000000D02*
X135580000Y-91000000D01*
X134580000Y-92000000D02*
X135580000Y-93000000D01*
X149380000Y-84500000D02*
X149380000Y-99500000D01*
X149380000Y-99500000D02*
X134380000Y-99500000D01*
%TD*%
D14*
X155000000Y-95000000D03*
X170000000Y-95000000D03*
X155000000Y-88000000D03*
X170000000Y-88000000D03*
X151500000Y-92000000D03*
X151500000Y-97000000D03*
X174000000Y-98200000D03*
X174000000Y-85500000D03*
X147080000Y-92000000D03*
X142000000Y-97080000D03*
X147080000Y-94540000D03*
X142000000Y-86920000D03*
M02*
