%TF.GenerationSoftware,KiCad,Pcbnew,8.0.8*%
%TF.CreationDate,2025-01-20T02:54:04+01:00*%
%TF.ProjectId,EFHW unun,45464857-2075-46e7-956e-2e6b69636164,rev?*%
%TF.SameCoordinates,Original*%
%TF.FileFunction,Copper,L2,Bot*%
%TF.FilePolarity,Positive*%
%FSLAX46Y46*%
G04 Gerber Fmt 4.6, Leading zero omitted, Abs format (unit mm)*
G04 Created by KiCad (PCBNEW 8.0.8) date 2025-01-20 02:54:04*
%MOMM*%
%LPD*%
G01*
G04 APERTURE LIST*
G04 Aperture macros list*
%AMRoundRect*
0 Rectangle with rounded corners*
0 $1 Rounding radius*
0 $2 $3 $4 $5 $6 $7 $8 $9 X,Y pos of 4 corners*
0 Add a 4 corners polygon primitive as box body*
4,1,4,$2,$3,$4,$5,$6,$7,$8,$9,$2,$3,0*
0 Add four circle primitives for the rounded corners*
1,1,$1+$1,$2,$3*
1,1,$1+$1,$4,$5*
1,1,$1+$1,$6,$7*
1,1,$1+$1,$8,$9*
0 Add four rect primitives between the rounded corners*
20,1,$1+$1,$2,$3,$4,$5,0*
20,1,$1+$1,$4,$5,$6,$7,0*
20,1,$1+$1,$6,$7,$8,$9,0*
20,1,$1+$1,$8,$9,$2,$3,0*%
G04 Aperture macros list end*
%TA.AperFunction,ComponentPad*%
%ADD10C,3.000000*%
%TD*%
%TA.AperFunction,ComponentPad*%
%ADD11C,1.600000*%
%TD*%
%TA.AperFunction,ComponentPad*%
%ADD12RoundRect,0.250001X-0.799999X-0.799999X0.799999X-0.799999X0.799999X0.799999X-0.799999X0.799999X0*%
%TD*%
%TA.AperFunction,ComponentPad*%
%ADD13O,2.500000X1.600000*%
%TD*%
%TA.AperFunction,ComponentPad*%
%ADD14O,7.000000X3.500000*%
%TD*%
%TA.AperFunction,ViaPad*%
%ADD15C,0.600000*%
%TD*%
%TA.AperFunction,Conductor*%
%ADD16C,1.500000*%
%TD*%
%ADD17C,0.300000*%
%ADD18C,0.350000*%
G04 APERTURE END LIST*
D10*
%TO.P,FT50-43,1*%
%TO.N,GND*%
X155000000Y-95000000D03*
%TO.P,FT50-43,2*%
%TO.N,Net-(ANT1-Pin_1)*%
X170000000Y-95000000D03*
%TO.P,FT50-43,3*%
%TO.N,Net-(BNC1-In)*%
X155000000Y-88000000D03*
%TO.P,FT50-43,4*%
%TO.N,Net-(ANT2-Pin_1)*%
X170000000Y-88000000D03*
%TD*%
D11*
%TO.P,C1,1*%
%TO.N,Net-(BNC1-In)*%
X151500000Y-92000000D03*
%TO.P,C1,2*%
%TO.N,GND*%
X151500000Y-97000000D03*
%TD*%
D12*
%TO.P,EF,1,Pin_1*%
%TO.N,Net-(ANT1-Pin_1)*%
X174000000Y-98200000D03*
%TD*%
%TO.P,DP,1,Pin_1*%
%TO.N,Net-(ANT2-Pin_1)*%
X174000000Y-85500000D03*
%TD*%
D13*
%TO.P,BNC,1,In*%
%TO.N,Net-(BNC1-In)*%
X147080000Y-92000000D03*
D14*
%TO.P,BNC,2,Ext*%
%TO.N,GND*%
X142000000Y-97080000D03*
D13*
X147080000Y-94540000D03*
D14*
X142000000Y-86920000D03*
%TD*%
D15*
%TO.N,GND*%
X175000000Y-83500000D03*
X154000000Y-92250000D03*
X161000000Y-83500000D03*
X171000000Y-83500000D03*
X172000000Y-86750000D03*
X173500000Y-93750000D03*
X167000000Y-100500000D03*
X175500000Y-96250000D03*
X175250000Y-87750000D03*
X151000000Y-100500000D03*
X141000000Y-100500000D03*
X161000000Y-100500000D03*
X134000000Y-95000000D03*
X137000000Y-100500000D03*
X165000000Y-100500000D03*
X171000000Y-100500000D03*
X145000000Y-100500000D03*
X134000000Y-89000000D03*
X134000000Y-87000000D03*
X135000000Y-100500000D03*
X172000000Y-93250000D03*
X148500000Y-90250000D03*
X139000000Y-100500000D03*
X157000000Y-83500000D03*
X152250000Y-93750000D03*
X174750000Y-94750000D03*
X157000000Y-100500000D03*
X137000000Y-83500000D03*
X165000000Y-83500000D03*
X134000000Y-85000000D03*
X163000000Y-83500000D03*
X173000000Y-100500000D03*
X153000000Y-100500000D03*
X134000000Y-91000000D03*
X171750000Y-97000000D03*
X159000000Y-100500000D03*
X150750000Y-90000000D03*
X145000000Y-83500000D03*
X155000000Y-83500000D03*
X153000000Y-83500000D03*
X163000000Y-100500000D03*
X149500000Y-94000000D03*
X173250000Y-89500000D03*
X155000000Y-100500000D03*
X139000000Y-83500000D03*
X155500000Y-90750000D03*
X147000000Y-83500000D03*
X143000000Y-100500000D03*
X141000000Y-83500000D03*
X134000000Y-93000000D03*
X152250000Y-88500000D03*
X169000000Y-100500000D03*
X169000000Y-83500000D03*
X134000000Y-99000000D03*
X149000000Y-83500000D03*
X134000000Y-97000000D03*
X135000000Y-83500000D03*
X174500000Y-89000000D03*
X172000000Y-89500000D03*
X143000000Y-83500000D03*
X167000000Y-83500000D03*
X175000000Y-100500000D03*
X151000000Y-83500000D03*
X149000000Y-100500000D03*
X173000000Y-83500000D03*
X147000000Y-100500000D03*
X159000000Y-83500000D03*
%TD*%
D16*
%TO.N,Net-(ANT1-Pin_1)*%
X174000000Y-97600000D02*
X174000000Y-98200000D01*
X173107106Y-95707106D02*
X173292893Y-95892893D01*
X171400000Y-95000000D02*
X170000000Y-95000000D01*
X173292893Y-95892893D02*
G75*
G02*
X174000004Y-97600000I-1707093J-1707107D01*
G01*
X173107106Y-95707106D02*
G75*
G03*
X171400000Y-94999996I-1707106J-1707094D01*
G01*
%TO.N,Net-(BNC1-In)*%
X155000000Y-88500000D02*
X151500000Y-92000000D01*
X155000000Y-88000000D02*
X155000000Y-88500000D01*
X147080000Y-92000000D02*
X151500000Y-92000000D01*
%TO.N,Net-(ANT2-Pin_1)*%
X174000000Y-87000000D02*
X174000000Y-85500000D01*
X173000000Y-88000000D02*
X170000000Y-88000000D01*
X173000000Y-88000000D02*
G75*
G03*
X174000000Y-87000000I0J1000000D01*
G01*
%TD*%
%TA.AperFunction,Conductor*%
%TO.N,GND*%
G36*
X175942539Y-83020185D02*
G01*
X175988294Y-83072989D01*
X175999500Y-83124500D01*
X175999500Y-100875500D01*
X175979815Y-100942539D01*
X175927011Y-100988294D01*
X175875500Y-100999500D01*
X133624500Y-100999500D01*
X133557461Y-100979815D01*
X133511706Y-100927011D01*
X133500500Y-100875500D01*
X133500500Y-96830000D01*
X138013497Y-96830000D01*
X141025038Y-96830000D01*
X140995000Y-96981016D01*
X140995000Y-97178984D01*
X141025038Y-97330000D01*
X138013498Y-97330000D01*
X138038496Y-97519884D01*
X138038499Y-97519897D01*
X138114835Y-97804790D01*
X138114838Y-97804800D01*
X138227704Y-98077281D01*
X138227709Y-98077292D01*
X138375174Y-98332707D01*
X138375185Y-98332723D01*
X138554729Y-98566709D01*
X138554735Y-98566716D01*
X138763283Y-98775264D01*
X138763290Y-98775270D01*
X138997276Y-98954814D01*
X138997292Y-98954825D01*
X139252707Y-99102290D01*
X139252718Y-99102295D01*
X139525199Y-99215161D01*
X139525209Y-99215164D01*
X139810102Y-99291500D01*
X139810115Y-99291503D01*
X140102516Y-99329998D01*
X140102534Y-99330000D01*
X141750000Y-99330000D01*
X141750000Y-98054961D01*
X141901016Y-98085000D01*
X142098984Y-98085000D01*
X142250000Y-98054961D01*
X142250000Y-99330000D01*
X143897466Y-99330000D01*
X143897483Y-99329998D01*
X144189884Y-99291503D01*
X144189897Y-99291500D01*
X144474790Y-99215164D01*
X144474800Y-99215161D01*
X144747281Y-99102295D01*
X144747292Y-99102290D01*
X145002707Y-98954825D01*
X145002723Y-98954814D01*
X145236709Y-98775270D01*
X145236716Y-98775264D01*
X145445264Y-98566716D01*
X145445270Y-98566709D01*
X145624814Y-98332723D01*
X145624825Y-98332707D01*
X145772290Y-98077292D01*
X145772295Y-98077281D01*
X145885161Y-97804800D01*
X145885164Y-97804790D01*
X145961500Y-97519897D01*
X145961503Y-97519884D01*
X145986502Y-97330000D01*
X142974962Y-97330000D01*
X143005000Y-97178984D01*
X143005000Y-96999997D01*
X150195034Y-96999997D01*
X150195034Y-97000002D01*
X150214858Y-97226599D01*
X150214860Y-97226610D01*
X150273730Y-97446317D01*
X150273735Y-97446331D01*
X150369863Y-97652478D01*
X150420974Y-97725472D01*
X151100000Y-97046446D01*
X151100000Y-97052661D01*
X151127259Y-97154394D01*
X151179920Y-97245606D01*
X151254394Y-97320080D01*
X151345606Y-97372741D01*
X151447339Y-97400000D01*
X151453553Y-97400000D01*
X150774526Y-98079025D01*
X150847513Y-98130132D01*
X150847521Y-98130136D01*
X151053668Y-98226264D01*
X151053682Y-98226269D01*
X151273389Y-98285139D01*
X151273400Y-98285141D01*
X151499998Y-98304966D01*
X151500002Y-98304966D01*
X151726599Y-98285141D01*
X151726610Y-98285139D01*
X151946317Y-98226269D01*
X151946331Y-98226264D01*
X152152478Y-98130136D01*
X152225471Y-98079024D01*
X151546447Y-97400000D01*
X151552661Y-97400000D01*
X151654394Y-97372741D01*
X151745606Y-97320080D01*
X151820080Y-97245606D01*
X151872741Y-97154394D01*
X151900000Y-97052661D01*
X151900000Y-97046447D01*
X152579024Y-97725471D01*
X152630136Y-97652478D01*
X152726264Y-97446331D01*
X152726269Y-97446317D01*
X152785139Y-97226610D01*
X152785141Y-97226599D01*
X152804966Y-97000002D01*
X152804966Y-96999997D01*
X152785141Y-96773400D01*
X152785139Y-96773389D01*
X152726269Y-96553682D01*
X152726264Y-96553668D01*
X152630136Y-96347521D01*
X152630132Y-96347513D01*
X152579025Y-96274526D01*
X151900000Y-96953551D01*
X151900000Y-96947339D01*
X151872741Y-96845606D01*
X151820080Y-96754394D01*
X151745606Y-96679920D01*
X151654394Y-96627259D01*
X151552661Y-96600000D01*
X151546445Y-96600000D01*
X152225472Y-95920974D01*
X152152478Y-95869863D01*
X151946331Y-95773735D01*
X151946317Y-95773730D01*
X151726610Y-95714860D01*
X151726599Y-95714858D01*
X151500002Y-95695034D01*
X151499998Y-95695034D01*
X151273400Y-95714858D01*
X151273389Y-95714860D01*
X151053682Y-95773730D01*
X151053673Y-95773734D01*
X150847516Y-95869866D01*
X150847512Y-95869868D01*
X150774526Y-95920973D01*
X150774526Y-95920974D01*
X151453553Y-96600000D01*
X151447339Y-96600000D01*
X151345606Y-96627259D01*
X151254394Y-96679920D01*
X151179920Y-96754394D01*
X151127259Y-96845606D01*
X151100000Y-96947339D01*
X151100000Y-96953552D01*
X150420974Y-96274526D01*
X150420973Y-96274526D01*
X150369868Y-96347512D01*
X150369866Y-96347516D01*
X150273734Y-96553673D01*
X150273730Y-96553682D01*
X150214860Y-96773389D01*
X150214858Y-96773400D01*
X150195034Y-96999997D01*
X143005000Y-96999997D01*
X143005000Y-96981016D01*
X142974962Y-96830000D01*
X145986502Y-96830000D01*
X145961503Y-96640115D01*
X145961500Y-96640102D01*
X145885164Y-96355209D01*
X145885161Y-96355199D01*
X145772295Y-96082718D01*
X145772290Y-96082707D01*
X145624825Y-95827292D01*
X145624814Y-95827276D01*
X145445270Y-95593290D01*
X145445264Y-95593283D01*
X145236716Y-95384735D01*
X145236709Y-95384729D01*
X145002723Y-95205185D01*
X145002707Y-95205174D01*
X144747292Y-95057709D01*
X144747281Y-95057704D01*
X144474800Y-94944838D01*
X144474790Y-94944835D01*
X144189897Y-94868499D01*
X144189884Y-94868496D01*
X143897483Y-94830001D01*
X143897466Y-94830000D01*
X142250000Y-94830000D01*
X142250000Y-96105038D01*
X142098984Y-96075000D01*
X141901016Y-96075000D01*
X141750000Y-96105038D01*
X141750000Y-94830000D01*
X140102534Y-94830000D01*
X140102516Y-94830001D01*
X139810115Y-94868496D01*
X139810102Y-94868499D01*
X139525209Y-94944835D01*
X139525199Y-94944838D01*
X139252718Y-95057704D01*
X139252707Y-95057709D01*
X138997292Y-95205174D01*
X138997276Y-95205185D01*
X138763290Y-95384729D01*
X138763283Y-95384735D01*
X138554735Y-95593283D01*
X138554729Y-95593290D01*
X138375185Y-95827276D01*
X138375174Y-95827292D01*
X138227709Y-96082707D01*
X138227704Y-96082718D01*
X138114838Y-96355199D01*
X138114835Y-96355209D01*
X138038499Y-96640102D01*
X138038496Y-96640115D01*
X138013497Y-96830000D01*
X133500500Y-96830000D01*
X133500500Y-91897648D01*
X145329500Y-91897648D01*
X145329500Y-92102351D01*
X145361522Y-92304534D01*
X145424781Y-92499223D01*
X145480964Y-92609487D01*
X145503003Y-92652741D01*
X145517715Y-92681613D01*
X145638028Y-92847213D01*
X145782786Y-92991971D01*
X145937749Y-93104556D01*
X145948390Y-93112287D01*
X146020424Y-93148990D01*
X146041629Y-93159795D01*
X146092425Y-93207770D01*
X146109220Y-93275591D01*
X146086682Y-93341726D01*
X146041629Y-93380765D01*
X145948650Y-93428140D01*
X145783105Y-93548417D01*
X145783104Y-93548417D01*
X145638417Y-93693104D01*
X145638417Y-93693105D01*
X145518140Y-93858650D01*
X145425244Y-94040970D01*
X145362009Y-94235586D01*
X145353391Y-94290000D01*
X146710496Y-94290000D01*
X146665326Y-94368236D01*
X146635000Y-94481415D01*
X146635000Y-94598585D01*
X146665326Y-94711764D01*
X146710496Y-94790000D01*
X145353391Y-94790000D01*
X145362009Y-94844413D01*
X145425244Y-95039029D01*
X145518140Y-95221349D01*
X145638417Y-95386894D01*
X145638417Y-95386895D01*
X145783104Y-95531582D01*
X145948650Y-95651859D01*
X146130968Y-95744755D01*
X146325582Y-95807990D01*
X146527683Y-95840000D01*
X146830000Y-95840000D01*
X146830000Y-94909504D01*
X146908236Y-94954674D01*
X147021415Y-94985000D01*
X147138585Y-94985000D01*
X147251764Y-94954674D01*
X147330000Y-94909504D01*
X147330000Y-95840000D01*
X147632317Y-95840000D01*
X147834417Y-95807990D01*
X148029031Y-95744755D01*
X148211349Y-95651859D01*
X148376894Y-95531582D01*
X148376895Y-95531582D01*
X148521582Y-95386895D01*
X148521582Y-95386894D01*
X148641859Y-95221349D01*
X148734755Y-95039029D01*
X148747437Y-94999998D01*
X152994891Y-94999998D01*
X152994891Y-95000001D01*
X153015300Y-95285362D01*
X153076109Y-95564895D01*
X153176091Y-95832958D01*
X153313191Y-96084038D01*
X153313196Y-96084046D01*
X153419882Y-96226562D01*
X153419883Y-96226563D01*
X154435387Y-95211059D01*
X154440889Y-95231591D01*
X154519881Y-95368408D01*
X154631592Y-95480119D01*
X154768409Y-95559111D01*
X154788940Y-95564612D01*
X153773435Y-96580115D01*
X153773436Y-96580116D01*
X153915953Y-96686803D01*
X153915961Y-96686808D01*
X154167042Y-96823908D01*
X154167041Y-96823908D01*
X154435104Y-96923890D01*
X154714637Y-96984699D01*
X154999999Y-97005109D01*
X155000001Y-97005109D01*
X155285362Y-96984699D01*
X155564895Y-96923890D01*
X155832958Y-96823908D01*
X156084038Y-96686808D01*
X156084039Y-96686807D01*
X156226563Y-96580115D01*
X155211059Y-95564612D01*
X155231591Y-95559111D01*
X155368408Y-95480119D01*
X155480119Y-95368408D01*
X155559111Y-95231591D01*
X155564612Y-95211059D01*
X156580115Y-96226563D01*
X156686807Y-96084039D01*
X156686808Y-96084038D01*
X156823908Y-95832958D01*
X156923890Y-95564895D01*
X156984699Y-95285362D01*
X157005109Y-95000001D01*
X157005109Y-94999998D01*
X167994390Y-94999998D01*
X167994390Y-95000001D01*
X168014804Y-95285433D01*
X168075628Y-95565037D01*
X168075630Y-95565043D01*
X168075631Y-95565046D01*
X168153468Y-95773734D01*
X168175635Y-95833166D01*
X168312770Y-96084309D01*
X168312775Y-96084317D01*
X168484254Y-96313387D01*
X168484270Y-96313405D01*
X168686594Y-96515729D01*
X168686612Y-96515745D01*
X168915682Y-96687224D01*
X168915690Y-96687229D01*
X169166833Y-96824364D01*
X169166832Y-96824364D01*
X169166836Y-96824365D01*
X169166839Y-96824367D01*
X169434954Y-96924369D01*
X169434960Y-96924370D01*
X169434962Y-96924371D01*
X169714566Y-96985195D01*
X169714568Y-96985195D01*
X169714572Y-96985196D01*
X169968220Y-97003337D01*
X169999999Y-97005610D01*
X170000000Y-97005610D01*
X170000001Y-97005610D01*
X170028595Y-97003564D01*
X170285428Y-96985196D01*
X170304644Y-96981016D01*
X170565037Y-96924371D01*
X170565037Y-96924370D01*
X170565046Y-96924369D01*
X170833161Y-96824367D01*
X171084315Y-96687226D01*
X171313395Y-96515739D01*
X171515739Y-96313395D01*
X171518638Y-96310496D01*
X171579961Y-96277011D01*
X171635263Y-96277602D01*
X171750122Y-96305178D01*
X171768610Y-96311185D01*
X171919299Y-96373603D01*
X171936633Y-96382436D01*
X172075686Y-96467648D01*
X172091428Y-96479085D01*
X172219183Y-96588198D01*
X172226332Y-96594807D01*
X172300460Y-96668935D01*
X172300470Y-96668944D01*
X172332263Y-96700737D01*
X172332277Y-96700752D01*
X172405209Y-96773683D01*
X172411818Y-96780833D01*
X172520536Y-96908125D01*
X172549107Y-96971887D01*
X172538670Y-97040972D01*
X172531786Y-97053752D01*
X172515189Y-97080661D01*
X172515186Y-97080666D01*
X172460001Y-97247203D01*
X172460001Y-97247204D01*
X172460000Y-97247204D01*
X172449500Y-97349984D01*
X172449500Y-99050015D01*
X172460000Y-99152795D01*
X172460001Y-99152797D01*
X172480667Y-99215164D01*
X172515186Y-99319335D01*
X172515187Y-99319337D01*
X172607286Y-99468651D01*
X172607289Y-99468655D01*
X172731344Y-99592710D01*
X172731348Y-99592713D01*
X172880662Y-99684812D01*
X172880664Y-99684813D01*
X172880666Y-99684814D01*
X173047203Y-99739999D01*
X173149992Y-99750500D01*
X173149997Y-99750500D01*
X174850003Y-99750500D01*
X174850008Y-99750500D01*
X174952797Y-99739999D01*
X175119334Y-99684814D01*
X175268655Y-99592711D01*
X175392711Y-99468655D01*
X175484814Y-99319334D01*
X175539999Y-99152797D01*
X175550500Y-99050008D01*
X175550500Y-97349992D01*
X175539999Y-97247203D01*
X175484814Y-97080666D01*
X175468213Y-97053752D01*
X175392713Y-96931348D01*
X175392712Y-96931347D01*
X175392711Y-96931345D01*
X175268655Y-96807289D01*
X175189246Y-96758308D01*
X175142522Y-96706360D01*
X175134569Y-96684864D01*
X175130301Y-96668935D01*
X175084217Y-96496947D01*
X174974766Y-96196236D01*
X174922577Y-96084317D01*
X174839528Y-95906217D01*
X174839520Y-95906201D01*
X174729047Y-95714858D01*
X174679518Y-95629072D01*
X174495966Y-95366935D01*
X174290267Y-95121794D01*
X174251061Y-95082588D01*
X174251041Y-95082566D01*
X173917827Y-94749353D01*
X173917781Y-94749311D01*
X173878206Y-94709734D01*
X173633068Y-94504038D01*
X173370932Y-94320487D01*
X173370929Y-94320485D01*
X173370926Y-94320483D01*
X173223881Y-94235586D01*
X173093796Y-94160481D01*
X173093780Y-94160473D01*
X172803779Y-94025242D01*
X172803771Y-94025239D01*
X172803769Y-94025238D01*
X172803762Y-94025235D01*
X172503051Y-93915785D01*
X172289822Y-93858650D01*
X172193947Y-93832960D01*
X172193940Y-93832959D01*
X171878799Y-93777390D01*
X171878801Y-93777390D01*
X171618250Y-93754594D01*
X171553181Y-93729141D01*
X171529793Y-93705379D01*
X171515739Y-93686605D01*
X171515737Y-93686603D01*
X171515729Y-93686594D01*
X171313405Y-93484270D01*
X171313387Y-93484254D01*
X171084317Y-93312775D01*
X171084309Y-93312770D01*
X170833166Y-93175635D01*
X170833167Y-93175635D01*
X170663316Y-93112284D01*
X170565046Y-93075631D01*
X170565043Y-93075630D01*
X170565037Y-93075628D01*
X170285433Y-93014804D01*
X170000001Y-92994390D01*
X169999999Y-92994390D01*
X169714566Y-93014804D01*
X169434962Y-93075628D01*
X169166833Y-93175635D01*
X168915690Y-93312770D01*
X168915682Y-93312775D01*
X168686612Y-93484254D01*
X168686594Y-93484270D01*
X168484270Y-93686594D01*
X168484254Y-93686612D01*
X168312775Y-93915682D01*
X168312770Y-93915690D01*
X168175635Y-94166833D01*
X168075628Y-94434962D01*
X168014804Y-94714566D01*
X167994390Y-94999998D01*
X157005109Y-94999998D01*
X156984699Y-94714637D01*
X156923890Y-94435104D01*
X156823908Y-94167041D01*
X156686808Y-93915961D01*
X156686803Y-93915953D01*
X156580116Y-93773436D01*
X156580115Y-93773435D01*
X155564612Y-94788939D01*
X155559111Y-94768409D01*
X155480119Y-94631592D01*
X155368408Y-94519881D01*
X155231591Y-94440889D01*
X155211058Y-94435387D01*
X156226563Y-93419883D01*
X156226562Y-93419882D01*
X156084046Y-93313196D01*
X156084038Y-93313191D01*
X155832957Y-93176091D01*
X155832958Y-93176091D01*
X155564895Y-93076109D01*
X155285362Y-93015300D01*
X155000001Y-92994891D01*
X154999999Y-92994891D01*
X154714637Y-93015300D01*
X154435104Y-93076109D01*
X154167041Y-93176091D01*
X153915961Y-93313191D01*
X153915953Y-93313196D01*
X153773435Y-93419882D01*
X154788941Y-94435387D01*
X154768409Y-94440889D01*
X154631592Y-94519881D01*
X154519881Y-94631592D01*
X154440889Y-94768409D01*
X154435387Y-94788940D01*
X153419882Y-93773435D01*
X153313196Y-93915953D01*
X153313191Y-93915961D01*
X153176091Y-94167041D01*
X153076109Y-94435104D01*
X153015300Y-94714637D01*
X152994891Y-94999998D01*
X148747437Y-94999998D01*
X148797990Y-94844413D01*
X148806609Y-94790000D01*
X147449504Y-94790000D01*
X147494674Y-94711764D01*
X147525000Y-94598585D01*
X147525000Y-94481415D01*
X147494674Y-94368236D01*
X147449504Y-94290000D01*
X148806609Y-94290000D01*
X148797990Y-94235586D01*
X148734755Y-94040970D01*
X148641859Y-93858650D01*
X148521582Y-93693105D01*
X148521582Y-93693104D01*
X148376895Y-93548417D01*
X148275595Y-93474818D01*
X148232930Y-93419488D01*
X148226951Y-93349874D01*
X148259557Y-93288080D01*
X148320396Y-93253722D01*
X148348481Y-93250500D01*
X151125857Y-93250500D01*
X151157949Y-93254724D01*
X151273308Y-93285635D01*
X151435230Y-93299801D01*
X151499998Y-93305468D01*
X151500000Y-93305468D01*
X151500002Y-93305468D01*
X151556784Y-93300500D01*
X151726692Y-93285635D01*
X151946496Y-93226739D01*
X152152734Y-93130568D01*
X152339139Y-93000047D01*
X152500047Y-92839139D01*
X152630568Y-92652734D01*
X152634285Y-92644762D01*
X152658982Y-92609490D01*
X153368478Y-91899994D01*
X172494357Y-91899994D01*
X172494357Y-91900005D01*
X172514890Y-92147812D01*
X172514892Y-92147824D01*
X172575936Y-92388881D01*
X172675826Y-92616606D01*
X172811833Y-92824782D01*
X172832482Y-92847213D01*
X172980256Y-93007738D01*
X173176491Y-93160474D01*
X173176493Y-93160475D01*
X173389208Y-93275591D01*
X173395190Y-93278828D01*
X173630386Y-93359571D01*
X173875665Y-93400500D01*
X174124335Y-93400500D01*
X174369614Y-93359571D01*
X174604810Y-93278828D01*
X174823509Y-93160474D01*
X175019744Y-93007738D01*
X175188164Y-92824785D01*
X175324173Y-92616607D01*
X175424063Y-92388881D01*
X175485108Y-92147821D01*
X175488876Y-92102351D01*
X175505643Y-91900005D01*
X175505643Y-91899994D01*
X175485109Y-91652187D01*
X175485107Y-91652175D01*
X175424063Y-91411118D01*
X175324173Y-91183393D01*
X175188166Y-90975217D01*
X175166557Y-90951744D01*
X175019744Y-90792262D01*
X174823509Y-90639526D01*
X174823507Y-90639525D01*
X174823506Y-90639524D01*
X174604811Y-90521172D01*
X174604802Y-90521169D01*
X174369616Y-90440429D01*
X174124335Y-90399500D01*
X173875665Y-90399500D01*
X173630383Y-90440429D01*
X173395197Y-90521169D01*
X173395188Y-90521172D01*
X173176493Y-90639524D01*
X172980257Y-90792261D01*
X172811833Y-90975217D01*
X172675826Y-91183393D01*
X172575936Y-91411118D01*
X172514892Y-91652175D01*
X172514890Y-91652187D01*
X172494357Y-91899994D01*
X153368478Y-91899994D01*
X155256935Y-90011537D01*
X155318253Y-89978055D01*
X155565046Y-89924369D01*
X155833161Y-89824367D01*
X156084315Y-89687226D01*
X156313395Y-89515739D01*
X156515739Y-89313395D01*
X156687226Y-89084315D01*
X156824367Y-88833161D01*
X156924369Y-88565046D01*
X156924371Y-88565037D01*
X156985195Y-88285433D01*
X156985195Y-88285432D01*
X156985196Y-88285428D01*
X157005610Y-88000000D01*
X157005610Y-87999998D01*
X167994390Y-87999998D01*
X167994390Y-88000001D01*
X168014804Y-88285433D01*
X168075628Y-88565037D01*
X168075630Y-88565043D01*
X168075631Y-88565046D01*
X168175633Y-88833161D01*
X168175635Y-88833166D01*
X168312770Y-89084309D01*
X168312775Y-89084317D01*
X168484254Y-89313387D01*
X168484270Y-89313405D01*
X168686594Y-89515729D01*
X168686612Y-89515745D01*
X168915682Y-89687224D01*
X168915690Y-89687229D01*
X169166833Y-89824364D01*
X169166832Y-89824364D01*
X169166836Y-89824365D01*
X169166839Y-89824367D01*
X169434954Y-89924369D01*
X169434960Y-89924370D01*
X169434962Y-89924371D01*
X169714566Y-89985195D01*
X169714568Y-89985195D01*
X169714572Y-89985196D01*
X169968220Y-90003337D01*
X169999999Y-90005610D01*
X170000000Y-90005610D01*
X170000001Y-90005610D01*
X170028595Y-90003564D01*
X170285428Y-89985196D01*
X170318260Y-89978054D01*
X170565037Y-89924371D01*
X170565037Y-89924370D01*
X170565046Y-89924369D01*
X170833161Y-89824367D01*
X171084315Y-89687226D01*
X171313395Y-89515739D01*
X171515739Y-89313395D01*
X171525626Y-89300188D01*
X171581560Y-89258318D01*
X171624892Y-89250500D01*
X173136132Y-89250500D01*
X173176971Y-89245540D01*
X173406405Y-89217682D01*
X173670754Y-89152526D01*
X173925322Y-89055981D01*
X174166397Y-88929456D01*
X174390462Y-88774794D01*
X174594252Y-88594252D01*
X174774794Y-88390462D01*
X174929456Y-88166397D01*
X175055981Y-87925322D01*
X175152526Y-87670754D01*
X175217682Y-87406405D01*
X175250500Y-87136130D01*
X175250500Y-87000000D01*
X175250500Y-86962228D01*
X175270185Y-86895189D01*
X175286819Y-86874547D01*
X175392711Y-86768655D01*
X175484814Y-86619334D01*
X175539999Y-86452797D01*
X175550500Y-86350008D01*
X175550500Y-84649992D01*
X175539999Y-84547203D01*
X175484814Y-84380666D01*
X175392711Y-84231345D01*
X175268655Y-84107289D01*
X175268651Y-84107286D01*
X175119337Y-84015187D01*
X175119335Y-84015186D01*
X175036065Y-83987593D01*
X174952797Y-83960001D01*
X174952795Y-83960000D01*
X174850015Y-83949500D01*
X174850008Y-83949500D01*
X173149992Y-83949500D01*
X173149984Y-83949500D01*
X173047204Y-83960000D01*
X173047203Y-83960001D01*
X172880664Y-84015186D01*
X172880662Y-84015187D01*
X172731348Y-84107286D01*
X172731344Y-84107289D01*
X172607289Y-84231344D01*
X172607286Y-84231348D01*
X172515187Y-84380662D01*
X172515186Y-84380664D01*
X172460001Y-84547203D01*
X172460000Y-84547204D01*
X172449500Y-84649984D01*
X172449500Y-86350015D01*
X172460000Y-86452795D01*
X172504305Y-86586496D01*
X172506707Y-86656324D01*
X172470975Y-86716366D01*
X172408455Y-86747559D01*
X172386599Y-86749500D01*
X171624892Y-86749500D01*
X171557853Y-86729815D01*
X171525626Y-86699812D01*
X171515742Y-86686609D01*
X171515729Y-86686594D01*
X171313405Y-86484270D01*
X171313387Y-86484254D01*
X171084317Y-86312775D01*
X171084309Y-86312770D01*
X170833166Y-86175635D01*
X170833167Y-86175635D01*
X170725915Y-86135632D01*
X170565046Y-86075631D01*
X170565043Y-86075630D01*
X170565037Y-86075628D01*
X170285433Y-86014804D01*
X170000001Y-85994390D01*
X169999999Y-85994390D01*
X169714566Y-86014804D01*
X169434962Y-86075628D01*
X169166833Y-86175635D01*
X168915690Y-86312770D01*
X168915682Y-86312775D01*
X168686612Y-86484254D01*
X168686594Y-86484270D01*
X168484270Y-86686594D01*
X168484254Y-86686612D01*
X168312775Y-86915682D01*
X168312770Y-86915690D01*
X168175635Y-87166833D01*
X168075628Y-87434962D01*
X168014804Y-87714566D01*
X167994390Y-87999998D01*
X157005610Y-87999998D01*
X156985196Y-87714572D01*
X156982164Y-87700635D01*
X156924371Y-87434962D01*
X156924370Y-87434960D01*
X156924369Y-87434954D01*
X156824367Y-87166839D01*
X156687226Y-86915685D01*
X156525626Y-86699812D01*
X156515745Y-86686612D01*
X156515729Y-86686594D01*
X156313405Y-86484270D01*
X156313387Y-86484254D01*
X156084317Y-86312775D01*
X156084309Y-86312770D01*
X155833166Y-86175635D01*
X155833167Y-86175635D01*
X155725915Y-86135632D01*
X155565046Y-86075631D01*
X155565043Y-86075630D01*
X155565037Y-86075628D01*
X155285433Y-86014804D01*
X155000001Y-85994390D01*
X154999999Y-85994390D01*
X154714566Y-86014804D01*
X154434962Y-86075628D01*
X154166833Y-86175635D01*
X153915690Y-86312770D01*
X153915682Y-86312775D01*
X153686612Y-86484254D01*
X153686594Y-86484270D01*
X153484270Y-86686594D01*
X153484254Y-86686612D01*
X153312775Y-86915682D01*
X153312770Y-86915690D01*
X153175635Y-87166833D01*
X153075628Y-87434962D01*
X153014804Y-87714566D01*
X152994390Y-87999998D01*
X152994390Y-88000001D01*
X153014804Y-88285433D01*
X153076572Y-88569373D01*
X153075528Y-88569600D01*
X153075517Y-88634572D01*
X153044227Y-88687297D01*
X151018345Y-90713181D01*
X150957022Y-90746666D01*
X150930664Y-90749500D01*
X147909502Y-90749500D01*
X147871184Y-90743431D01*
X147834535Y-90731523D01*
X147718729Y-90713181D01*
X147632352Y-90699500D01*
X146527648Y-90699500D01*
X146503329Y-90703351D01*
X146325465Y-90731522D01*
X146130776Y-90794781D01*
X145948386Y-90887715D01*
X145782786Y-91008028D01*
X145638028Y-91152786D01*
X145517715Y-91318386D01*
X145424781Y-91500776D01*
X145361522Y-91695465D01*
X145329500Y-91897648D01*
X133500500Y-91897648D01*
X133500500Y-86670000D01*
X138013497Y-86670000D01*
X141025038Y-86670000D01*
X140995000Y-86821016D01*
X140995000Y-87018984D01*
X141025038Y-87170000D01*
X138013498Y-87170000D01*
X138038496Y-87359884D01*
X138038499Y-87359897D01*
X138114835Y-87644790D01*
X138114838Y-87644800D01*
X138227704Y-87917281D01*
X138227709Y-87917292D01*
X138375174Y-88172707D01*
X138375185Y-88172723D01*
X138554729Y-88406709D01*
X138554735Y-88406716D01*
X138763283Y-88615264D01*
X138763290Y-88615270D01*
X138997276Y-88794814D01*
X138997292Y-88794825D01*
X139252707Y-88942290D01*
X139252718Y-88942295D01*
X139525199Y-89055161D01*
X139525209Y-89055164D01*
X139810102Y-89131500D01*
X139810115Y-89131503D01*
X140102516Y-89169998D01*
X140102534Y-89170000D01*
X141750000Y-89170000D01*
X141750000Y-87894961D01*
X141901016Y-87925000D01*
X142098984Y-87925000D01*
X142250000Y-87894961D01*
X142250000Y-89170000D01*
X143897466Y-89170000D01*
X143897483Y-89169998D01*
X144189884Y-89131503D01*
X144189897Y-89131500D01*
X144474790Y-89055164D01*
X144474800Y-89055161D01*
X144747281Y-88942295D01*
X144747292Y-88942290D01*
X145002707Y-88794825D01*
X145002723Y-88794814D01*
X145236709Y-88615270D01*
X145236716Y-88615264D01*
X145445264Y-88406716D01*
X145445270Y-88406709D01*
X145624814Y-88172723D01*
X145624825Y-88172707D01*
X145772290Y-87917292D01*
X145772295Y-87917281D01*
X145885161Y-87644800D01*
X145885164Y-87644790D01*
X145961500Y-87359897D01*
X145961503Y-87359884D01*
X145986502Y-87170000D01*
X142974962Y-87170000D01*
X143005000Y-87018984D01*
X143005000Y-86821016D01*
X142974962Y-86670000D01*
X145986502Y-86670000D01*
X145961503Y-86480115D01*
X145961500Y-86480102D01*
X145885164Y-86195209D01*
X145885161Y-86195199D01*
X145772295Y-85922718D01*
X145772290Y-85922707D01*
X145624825Y-85667292D01*
X145624814Y-85667276D01*
X145445270Y-85433290D01*
X145445264Y-85433283D01*
X145236716Y-85224735D01*
X145236709Y-85224729D01*
X145002723Y-85045185D01*
X145002707Y-85045174D01*
X144747292Y-84897709D01*
X144747281Y-84897704D01*
X144474800Y-84784838D01*
X144474790Y-84784835D01*
X144189897Y-84708499D01*
X144189884Y-84708496D01*
X143897483Y-84670001D01*
X143897466Y-84670000D01*
X142250000Y-84670000D01*
X142250000Y-85945038D01*
X142098984Y-85915000D01*
X141901016Y-85915000D01*
X141750000Y-85945038D01*
X141750000Y-84670000D01*
X140102534Y-84670000D01*
X140102516Y-84670001D01*
X139810115Y-84708496D01*
X139810102Y-84708499D01*
X139525209Y-84784835D01*
X139525199Y-84784838D01*
X139252718Y-84897704D01*
X139252707Y-84897709D01*
X138997292Y-85045174D01*
X138997276Y-85045185D01*
X138763290Y-85224729D01*
X138763283Y-85224735D01*
X138554735Y-85433283D01*
X138554729Y-85433290D01*
X138375185Y-85667276D01*
X138375174Y-85667292D01*
X138227709Y-85922707D01*
X138227704Y-85922718D01*
X138114838Y-86195199D01*
X138114835Y-86195209D01*
X138038499Y-86480102D01*
X138038496Y-86480115D01*
X138013497Y-86670000D01*
X133500500Y-86670000D01*
X133500500Y-83124500D01*
X133520185Y-83057461D01*
X133572989Y-83011706D01*
X133624500Y-83000500D01*
X175875500Y-83000500D01*
X175942539Y-83020185D01*
G37*
%TD.AperFunction*%
%TD*%
%TA.AperFunction,Conductor*%
%TO.N,Net-(BNC1-In)*%
G36*
X155746573Y-87253427D02*
G01*
X155750000Y-87261700D01*
X155750000Y-88738300D01*
X155746573Y-88746573D01*
X155738300Y-88750000D01*
X154261700Y-88750000D01*
X154253427Y-88746573D01*
X154250000Y-88738300D01*
X154250000Y-87261700D01*
X154253427Y-87253427D01*
X154261700Y-87250000D01*
X155738300Y-87250000D01*
X155746573Y-87253427D01*
G37*
%TD.AperFunction*%
%TD*%
D17*
X175000000Y-83500000D03*
X154000000Y-92250000D03*
X161000000Y-83500000D03*
X171000000Y-83500000D03*
X172000000Y-86750000D03*
X173500000Y-93750000D03*
X167000000Y-100500000D03*
X175500000Y-96250000D03*
X175250000Y-87750000D03*
X151000000Y-100500000D03*
X141000000Y-100500000D03*
X161000000Y-100500000D03*
X134000000Y-95000000D03*
X137000000Y-100500000D03*
X165000000Y-100500000D03*
X171000000Y-100500000D03*
X145000000Y-100500000D03*
X134000000Y-89000000D03*
X134000000Y-87000000D03*
X135000000Y-100500000D03*
X172000000Y-93250000D03*
X148500000Y-90250000D03*
X139000000Y-100500000D03*
X157000000Y-83500000D03*
X152250000Y-93750000D03*
X174750000Y-94750000D03*
X157000000Y-100500000D03*
X137000000Y-83500000D03*
X165000000Y-83500000D03*
X134000000Y-85000000D03*
X163000000Y-83500000D03*
X173000000Y-100500000D03*
X153000000Y-100500000D03*
X134000000Y-91000000D03*
X171750000Y-97000000D03*
X159000000Y-100500000D03*
X150750000Y-90000000D03*
X145000000Y-83500000D03*
X155000000Y-83500000D03*
X153000000Y-83500000D03*
X163000000Y-100500000D03*
X149500000Y-94000000D03*
X173250000Y-89500000D03*
X155000000Y-100500000D03*
X139000000Y-83500000D03*
X155500000Y-90750000D03*
X147000000Y-83500000D03*
X143000000Y-100500000D03*
X141000000Y-83500000D03*
X134000000Y-93000000D03*
X152250000Y-88500000D03*
X169000000Y-100500000D03*
X169000000Y-83500000D03*
X134000000Y-99000000D03*
X149000000Y-83500000D03*
X134000000Y-97000000D03*
X135000000Y-83500000D03*
X174500000Y-89000000D03*
X172000000Y-89500000D03*
X143000000Y-83500000D03*
X167000000Y-83500000D03*
X175000000Y-100500000D03*
X151000000Y-83500000D03*
X149000000Y-100500000D03*
X173000000Y-83500000D03*
X147000000Y-100500000D03*
X159000000Y-83500000D03*
D18*
X155000000Y-95000000D03*
X170000000Y-95000000D03*
X155000000Y-88000000D03*
X170000000Y-88000000D03*
X151500000Y-92000000D03*
X151500000Y-97000000D03*
X174000000Y-98200000D03*
X174000000Y-85500000D03*
X147080000Y-92000000D03*
X142000000Y-97080000D03*
X147080000Y-94540000D03*
X142000000Y-86920000D03*
M02*
