M48
; DRILL file {KiCad 8.0.8} date 2025-01-20T02:54:04+0100
; FORMAT={-:-/ absolute / metric / decimal}
; #@! TF.CreationDate,2025-01-20T02:54:04+01:00
; #@! TF.GenerationSoftware,Kicad,Pcbnew,8.0.8
; #@! TF.FileFunction,Plated,1,2,PTH
FMAT,2
METRIC
; #@! TA.AperFunction,Plated,PTH,ViaDrill
T1C0.300
; #@! TA.AperFunction,Plated,PTH,ComponentDrill
T2C0.800
; #@! TA.AperFunction,Plated,PTH,ComponentDrill
T3C0.890
; #@! TA.AperFunction,Plated,PTH,ComponentDrill
T4C1.100
; #@! TA.AperFunction,Plated,PTH,ComponentDrill
T5C1.200
; #@! TA.AperFunction,Plated,PTH,ComponentDrill
T6C2.010
%
G90
G05
T1
X134.0Y-85.0
X134.0Y-87.0
X134.0Y-89.0
X134.0Y-91.0
X134.0Y-93.0
X134.0Y-95.0
X134.0Y-97.0
X134.0Y-99.0
X135.0Y-83.5
X135.0Y-100.5
X137.0Y-83.5
X137.0Y-100.5
X139.0Y-83.5
X139.0Y-100.5
X141.0Y-83.5
X141.0Y-100.5
X143.0Y-83.5
X143.0Y-100.5
X145.0Y-83.5
X145.0Y-100.5
X147.0Y-83.5
X147.0Y-100.5
X148.5Y-90.25
X149.0Y-83.5
X149.0Y-100.5
X149.5Y-94.0
X150.75Y-90.0
X151.0Y-83.5
X151.0Y-100.5
X152.25Y-88.5
X152.25Y-93.75
X153.0Y-83.5
X153.0Y-100.5
X154.0Y-92.25
X155.0Y-83.5
X155.0Y-100.5
X155.5Y-90.75
X157.0Y-83.5
X157.0Y-100.5
X159.0Y-83.5
X159.0Y-100.5
X161.0Y-83.5
X161.0Y-100.5
X163.0Y-83.5
X163.0Y-100.5
X165.0Y-83.5
X165.0Y-100.5
X167.0Y-83.5
X167.0Y-100.5
X169.0Y-83.5
X169.0Y-100.5
X171.0Y-83.5
X171.0Y-100.5
X171.75Y-97.0
X172.0Y-86.75
X172.0Y-89.5
X172.0Y-93.25
X173.0Y-83.5
X173.0Y-100.5
X173.25Y-89.5
X173.5Y-93.75
X174.5Y-89.0
X174.75Y-94.75
X175.0Y-83.5
X175.0Y-100.5
X175.25Y-87.75
X175.5Y-96.25
T2
X151.5Y-92.0
X151.5Y-97.0
T3
X147.08Y-92.0
X147.08Y-94.54
T4
X174.0Y-85.5
X174.0Y-98.2
T5
X155.0Y-88.0
X155.0Y-95.0
X170.0Y-88.0
X170.0Y-95.0
T6
X142.0Y-86.92
X142.0Y-97.08
M30
